<?xml version="1.0" encoding="UTF-8" standalone="no"?>
<!-- Created with Inkscape (http://www.inkscape.org/) -->
<svg
   xmlns:svg="http://www.w3.org/2000/svg"
   xmlns="http://www.w3.org/2000/svg"
   version="1.0"
   width="484.98474"
   height="160.75"
   id="svg2">
  <defs
     id="defs4" />
  <g
     transform="translate(-135.52118,-320.18361)"
     id="layer1">
    <g
       id="g2607">
      <g
         transform="translate(-82.26572,-34.609541)"
         id="g2451">
        <path
           d="M 218.2869,515.04315 L 245.0369,515.04315 L 245.0369,387.04315 L 274.7869,417.04315 L 298.7869,410.04315 L 244.0369,355.29315 L 218.2869,358.54315 L 218.2869,515.04315 z"
           id="path2526"
           style="fill:#000000;stroke:#000000" />
      </g>
      <g
         transform="translate(61.955713,-31.234651)"
         id="g2502">
        <path
           d="M 333.13667,403.56931 L 294.51096,358.66803 L 258.18334,400.82927 L 219.55764,359.72869 L 183.93713,403.74609 L 205.06194,408.78423 L 221.14862,389.42718 L 247.04641,417.09273 L 247.04641,511.66826 L 271.17643,511.66826 L 271.17643,415.94368 L 294.9529,388.5433 L 313.42606,408.961 L 333.13667,403.56931 z"
           id="path2761"
           style="fill:#000000;stroke:#000000" />
      </g>
      <g
         transform="translate(201.98964,-27.297041)"
         id="g2553">
        <path
           d="M 267.4744,362.60565 L 294.5994,362.60565 L 294.5994,507.73065 L 267.4744,507.73065 L 267.4744,432.85565 L 222.4744,409.48065 L 222.4744,386.48065 L 267.4744,409.85565 L 267.4744,362.60565 z"
           id="path2653"
           style="fill:#000000;stroke:#000000" />
      </g>
      <g
         transform="translate(314.44641,-27.787511)"
         id="g2604">
        <path
           d="M 237.58886,362.11518 L 211.5143,362.11518 L 211.5143,508.22112 L 237.67725,508.22112 L 237.67725,451.29902 L 272.50226,440.16209 L 279.57332,508.22112 L 305.5595,507.16046 L 297.33938,416.20885 L 237.58886,434.32846 L 237.58886,362.11518 z"
           id="path3041"
           style="fill:#000000;stroke:#000000" />
      </g>
    </g>
  </g>
</svg>
